<svg width="16" height="16" viewBox="0 0 16 16" fill="none" xmlns="http://www.w3.org/2000/svg">
<g clip-path="url(#clip0_4649_990)">
<path d="M2.03334 6.20647C2.005 6.12184 1.99394 6.03238 2.00082 5.9434C2.0077 5.85442 2.03238 5.76772 2.07339 5.68845C2.1144 5.60918 2.17091 5.53896 2.23957 5.48194C2.30823 5.42491 2.38763 5.38226 2.47309 5.3565C2.55854 5.33074 2.64829 5.3224 2.73702 5.33197C2.82576 5.34155 2.91166 5.36884 2.98965 5.41223C3.06764 5.45563 3.13612 5.51424 3.19104 5.58459C3.24595 5.65495 3.28618 5.73561 3.30934 5.82181C4.70001 10.4791 11.2973 10.4798 12.6893 5.82447C12.7143 5.74051 12.7555 5.66229 12.8107 5.59427C12.8659 5.52625 12.9339 5.46977 13.0109 5.42804C13.088 5.38632 13.1724 5.36017 13.2595 5.3511C13.3467 5.34202 13.4347 5.35019 13.5187 5.37514C13.6026 5.40009 13.6809 5.44133 13.7489 5.49652C13.8169 5.5517 13.8734 5.61974 13.9151 5.69675C13.9568 5.77376 13.983 5.85823 13.9921 5.94535C14.0011 6.03246 13.993 6.12051 13.968 6.20447C13.7254 7.0386 13.314 7.81397 12.7593 8.48247L13.6093 9.33314C13.7308 9.45887 13.798 9.62728 13.7965 9.80207C13.7949 9.97687 13.7248 10.1441 13.6012 10.2677C13.4776 10.3913 13.3104 10.4614 13.1356 10.4629C12.9608 10.4644 12.7924 10.3972 12.6667 10.2758L11.7927 9.40181C11.321 9.75748 10.7999 10.0425 10.246 10.2478L10.484 11.1378C10.5094 11.2232 10.5174 11.3128 10.5076 11.4013C10.4978 11.4898 10.4704 11.5755 10.4269 11.6532C10.3834 11.7309 10.3248 11.7992 10.2546 11.8539C10.1843 11.9086 10.1038 11.9487 10.0177 11.9718C9.93171 11.9948 9.84194 12.0004 9.75371 11.9882C9.66549 11.976 9.58061 11.9463 9.50407 11.9007C9.42753 11.8552 9.3609 11.7948 9.3081 11.7231C9.25531 11.6513 9.21742 11.5698 9.19667 11.4831L8.95401 10.5785C8.32267 10.6718 7.67734 10.6718 7.04601 10.5785L6.80334 11.4831C6.78259 11.5698 6.74471 11.6513 6.69191 11.7231C6.63911 11.7948 6.57248 11.8552 6.49594 11.9007C6.41941 11.9463 6.33452 11.976 6.2463 11.9882C6.15807 12.0004 6.0683 11.9948 5.98228 11.9718C5.89626 11.9487 5.81573 11.9086 5.74546 11.8539C5.67518 11.7992 5.61658 11.7309 5.57312 11.6532C5.52966 11.5755 5.50221 11.4898 5.4924 11.4013C5.48259 11.3128 5.49062 11.2232 5.51601 11.1378L5.75401 10.2478C5.20004 10.0423 4.67901 9.75703 4.20734 9.40114L3.33401 10.2758C3.209 10.401 3.03939 10.4714 2.86248 10.4715C2.68557 10.4716 2.51586 10.4015 2.39067 10.2765C2.26549 10.1515 2.19509 9.98185 2.19497 9.80494C2.19484 9.62804 2.265 9.45832 2.39001 9.33314L3.24001 8.48314C2.71734 7.85914 2.30001 7.10047 2.03201 6.20714L2.03334 6.20647Z" fill="#A3A3A3"/>
</g>
<defs>
<clipPath id="clip0_4649_990">
<rect width="16" height="16" fill="white"/>
</clipPath>
</defs>
</svg>
