<svg width="14" height="17" viewBox="0 0 14 17" fill="none" xmlns="http://www.w3.org/2000/svg">
<path fill-rule="evenodd" clip-rule="evenodd" d="M10 1.24956V14.9662C9.99994 15.1478 9.96033 15.3271 9.88395 15.4918C9.80756 15.6565 9.69622 15.8025 9.55767 15.9198C9.41912 16.0371 9.25669 16.1228 9.08166 16.171C8.90664 16.2192 8.72322 16.2286 8.54417 16.1987L1.3925 15.0071C1.00334 14.9422 0.649827 14.7413 0.394845 14.4403C0.139864 14.1392 -4.84816e-05 13.7574 1.2602e-08 13.3629V2.8529C-4.84816e-05 2.45836 0.139864 2.07661 0.394845 1.77554C0.649827 1.47448 1.00334 1.27363 1.3925 1.20873L8.54417 0.0170635C8.72329 -0.0128404 8.90678 -0.00335539 9.08186 0.0448585C9.25695 0.0930724 9.41943 0.178857 9.55799 0.296244C9.69655 0.41363 9.80788 0.559799 9.88421 0.72458C9.96054 0.88936 10.0001 1.06796 10 1.24956ZM11.6667 2.27456C12.0871 2.27443 12.4921 2.43324 12.8005 2.71914C13.1088 3.00505 13.2976 3.39693 13.3292 3.81623L13.3333 3.94123V12.2746C13.3335 12.695 13.1747 13.1 12.8888 13.4084C12.6028 13.7167 12.211 13.9055 11.7917 13.9371L11.6667 13.9412H10.8333V2.27456H11.6667ZM6.25 6.8579C5.91848 6.8579 5.60054 6.98959 5.36612 7.22401C5.1317 7.45843 5 7.77638 5 8.1079C5 8.43942 5.1317 8.75736 5.36612 8.99178C5.60054 9.2262 5.91848 9.3579 6.25 9.3579C6.58152 9.3579 6.89946 9.2262 7.13388 8.99178C7.3683 8.75736 7.5 8.43942 7.5 8.1079C7.5 7.77638 7.3683 7.45843 7.13388 7.22401C6.89946 6.98959 6.58152 6.8579 6.25 6.8579Z" fill="#A3A3A3"/>
</svg>
