<svg width="15" height="15" viewBox="0 0 15 15" fill="none" xmlns="http://www.w3.org/2000/svg">
<path fill-rule="evenodd" clip-rule="evenodd" d="M13.3333 0C13.7754 0 14.1993 0.175595 14.5118 0.488155C14.8244 0.800716 15 1.22464 15 1.66667V13.3333C15 13.7754 14.8244 14.1993 14.5118 14.5118C14.1993 14.8244 13.7754 15 13.3333 15H1.66667C1.22464 15 0.800716 14.8244 0.488155 14.5118C0.175595 14.1993 0 13.7754 0 13.3333V1.66667C0 1.22464 0.175595 0.800716 0.488155 0.488155C0.800716 0.175595 1.22464 0 1.66667 0H13.3333ZM4.16667 1.66667H1.66667V13.3333H4.16667V1.66667ZM13.3333 1.66667H5.83333V13.3333H13.3333V1.66667ZM9.8275 5.14333C9.97746 4.99388 10.1787 4.9071 10.3903 4.90064C10.6019 4.89418 10.8081 4.96851 10.9669 5.10854C11.1257 5.24857 11.2253 5.44379 11.2453 5.65456C11.2654 5.86533 11.2045 6.07584 11.075 6.24333L11.0058 6.32167L9.8275 7.5L11.0058 8.67833C11.1569 8.82795 11.245 9.02964 11.2522 9.24212C11.2594 9.4546 11.1852 9.66181 11.0446 9.82132C10.9041 9.98083 10.7078 10.0806 10.4961 10.1002C10.2844 10.1198 10.0733 10.0577 9.90583 9.92667L9.8275 9.85667L8.06 8.09C7.9164 7.94661 7.83005 7.75575 7.81716 7.55323C7.80427 7.3507 7.86573 7.15043 7.99 6.99L8.06 6.91083L9.8275 5.14333Z" fill="#A3A3A3"/>
</svg>
